:FULLY-SPECIFIED
:FORCE-ALL-JOINTS-BE-3DOF
:DEGREES
1937
root 5.75472 13.7085 27.9971 1047.98 70.5163 324.863
lfemur -60.9295 3.32696 -1.62379
ltibia 59.7051 0 0
lfoot 1.48898 -2.10126 0
ltoes -31.6025 0 0
rfemur -4.43398 1.33371 17.6615
rtibia 66.4696 0 0
rfoot -23.3796 -24.7237 0
rtoes -28.4099 0 0
lowerback 13.6429 4.61518 4.11904
upperback -0.393181 7.15211 3.3997
thorax -8.0035 3.40155 -0.132814
lowerneck -0.885317 15.7765 6.42402
upperneck 6.1403 21.5153 -7.09104
head 3.75283 10.675 -2.33074
lclavicle 8.65455e-014 -4.41328e-014 0
lhumerus 71.6057 -32.4441 40.9592
lradius 57.9968 0 0
lwrist 21.5269 0 0
lhand -5.71182 32.0452 0
lfingers 7.12502 0 0
lthumb 20.1119 61.0789 0
rclavicle 8.65455e-014 -4.41328e-014 0
rhumerus -32.2339 31.1744 -74.2606
rradius 89.2526 0 0
rwrist -29.081 0 0
rhand -14.8574 -405.753 0
rfingers 7.12502 0 0
rthumb 11.301 284.595 0
1938
root 5.61407 13.7306 28.0343 1044.87 71.3996 321.673
lfemur -60.7245 2.30802 -1.30022
ltibia 57.3545 0 0
lfoot 2.0091 -2.6467 0
ltoes -31.2386 0 0
rfemur -4.81478 2.29519 18.1177
rtibia 66.6697 0 0
rfoot -23.3778 -24.548 0
rtoes -29.1545 0 0
lowerback 13.6875 4.58306 4.08963
upperback -0.402052 7.10639 3.37715
thorax -8.03969 3.37862 -0.136173
lowerneck -0.902544 15.7498 6.45767
upperneck 6.11057 21.4775 -7.13443
head 3.73245 10.6544 -2.33646
lclavicle 8.5003e-014 -4.26853e-014 0
lhumerus 73.2865 -33.0482 39.0596
lradius 61.2265 0 0
lwrist 22.9271 0 0
lhand -5.97548 32.2927 0
lfingers 7.12502 0 0
lthumb 19.8582 61.3519 0
rclavicle 8.5003e-014 -4.26853e-014 0
rhumerus -30.9124 32.296 -73.7415
rradius 89.2889 0 0
rwrist -29.0116 0 0
rhand -14.4513 -405.604 0
rfingers 7.12502 0 0
rthumb 11.6923 284.772 0
1939
root 5.47343 13.7528 28.0715 1041.54 72.3289 318.249
lfemur -60.5036 1.25033 -0.94597
ltibia 54.8479 0 0
lfoot 2.54233 -3.24092 0
ltoes -30.8348 0 0
rfemur -5.19219 3.2944 18.6042
rtibia 66.8227 0 0
rfoot -23.3896 -24.3731 0
rtoes -29.9592 0 0
lowerback 13.7297 4.54595 4.07332
upperback -0.414905 7.05602 3.35481
thorax -8.07747 3.35281 -0.145538
lowerneck -0.92003 15.7194 6.49691
upperneck 6.08021 21.4343 -7.17803
head 3.71066 10.6312 -2.34229
lclavicle 8.28505e-014 -4.11154e-014 0
lhumerus 75.0699 -33.5795 37.189
lradius 64.5732 0 0
lwrist 24.1357 0 0
lhand -6.33786 32.569 0
lfingers 7.12502 0 0
lthumb 19.5094 61.6589 0
rclavicle 8.28505e-014 -4.11154e-014 0
rhumerus -29.6072 33.4573 -73.2308
rradius 89.3898 0 0
rwrist -29.0388 0 0
rhand -13.9969 -405.407 0
rfingers 7.12502 0 0
rthumb 12.1302 284.999 0
1940
root 5.33278 13.775 28.1087 1038.01 73.289 314.618
lfemur -60.2716 0.167928 -0.5731
ltibia 52.2261 0 0
lfoot 3.08064 -3.87066 0
ltoes -30.3995 0 0
rfemur -5.56729 4.31724 19.1157
rtibia 66.9335 0 0
rfoot -23.4152 -24.2017 0
rtoes -30.8097 0 0
lowerback 13.7696 4.50387 4.06914
upperback -0.431166 7.00096 3.33306
thorax -8.11654 3.32417 -0.159926
lowerneck -0.937795 15.6853 6.54061
upperneck 6.0487 21.3858 -7.22195
head 3.68752 10.6053 -2.3484
lclavicle 8.01673e-014 -3.9433e-014 0
lhumerus 76.9308 -34.0457 35.3532
lradius 68.0098 0 0
lwrist 25.1648 0 0
lhand -6.78619 32.8693 0
lfingers 7.12502 0 0
lthumb 19.0777 61.9944 0
rclavicle 8.01673e-014 -3.9433e-014 0
rhumerus -28.3285 34.6473 -72.7328
rradius 89.5496 0 0
rwrist -29.1565 0 0
rhand -13.5004 -405.168 0
rfingers 7.12502 0 0
rthumb 12.6087 285.272 0
1941
root 5.19214 13.7971 28.1459 1034.32 74.2651 310.81
lfemur -60.033 -0.925123 -0.193687
ltibia 49.53 0 0
lfoot 3.616 -4.52263 0
ltoes -29.9414 0 0
rfemur -5.94111 5.34962 19.6469
rtibia 67.0068 0 0
rfoot -23.4555 -24.0366 0
rtoes -31.6919 0 0
lowerback 13.8076 4.45682 4.07614
upperback -0.45026 6.94114 3.31232
thorax -8.15662 3.29278 -0.178355
lowerneck -0.955863 15.6475 6.58764
upperneck 6.01553 21.332 -7.26633
head 3.6631 10.5769 -2.35494
lclavicle 7.70325e-014 -3.76478e-014 0
lhumerus 78.8443 -34.4544 33.5578
lradius 71.5092 0 0
lwrist 26.0264 0 0
lhand -7.30769 33.1889 0
lfingers 7.12502 0 0
lthumb 18.5754 62.3529 0
rclavicle 7.70325e-014 -3.76478e-014 0
rhumerus -27.0866 35.8548 -72.2519
rradius 89.7628 0 0
rwrist -29.3581 0 0
rhand -12.9676 -404.895 0
rfingers 7.12502 0 0
rthumb 13.1221 285.582 0
1942
root 5.05149 13.8193 28.1831 1030.48 75.2423 306.852
lfemur -59.7923 -2.01478 0.1802
ltibia 46.8004 0 0
lfoot 4.14038 -5.18358 0
ltoes -29.4691 0 0
rfemur -6.31472 6.37741 20.1925
rtibia 67.0474 0 0
rfoot -23.5107 -23.8807 0
rtoes -32.5915 0 0
lowerback 13.844 4.40481 4.09334
upperback -0.471611 6.87652 3.29296
thorax -8.19742 3.25867 -0.19984
lowerneck -0.974256 15.6061 6.63685
upperneck 5.98018 21.2731 -7.31126
head 3.63744 10.5459 -2.36205
lclavicle 7.35255e-014 -3.57697e-014 0
lhumerus 80.785 -34.8132 31.8084
lradius 75.0443 0 0
lwrist 26.7327 0 0
lhand -7.88957 33.523 0
lfingers 7.12502 0 0
lthumb 18.015 62.7289 0
rclavicle 7.35255e-014 -3.57697e-014 0
rhumerus -25.8916 37.0685 -71.7924
rradius 90.0236 0 0
rwrist -29.6375 0 0
rhand -12.4045 -404.592 0
rfingers 7.12502 0 0
rthumb 13.6646 285.922 0
